{
    "asset" : {
        "generator" : "Khronos glTF Blender I/O v1.4.40",
        "version" : "2.0"
    },
    "scene" : 0,
    "scenes" : [
        {
            "name" : "Scene",
            "nodes" : [
                0
            ]
        }
    ],
    "nodes" : [
        {
            "mesh" : 0,
            "name" : "Start Room-col"
        }
    ],
    "meshes" : [
        {
            "name" : "Cube.001",
            "primitives" : [
                {
                    "attributes" : {
                        "POSITION" : 0,
                        "NORMAL" : 1,
                        "TEXCOORD_0" : 2
                    },
                    "indices" : 3
                }
            ]
        }
    ],
    "accessors" : [
        {
            "bufferView" : 0,
            "componentType" : 5126,
            "count" : 879,
            "max" : [
                23.287921905517578,
                16.046062469482422,
                23.395090103149414
            ],
            "min" : [
                -23.287921905517578,
                -3.565516471862793,
                -31.921772003173828
            ],
            "type" : "VEC3"
        },
        {
            "bufferView" : 1,
            "componentType" : 5126,
            "count" : 879,
            "type" : "VEC3"
        },
        {
            "bufferView" : 2,
            "componentType" : 5126,
            "count" : 879,
            "type" : "VEC2"
        },
        {
            "bufferView" : 3,
            "componentType" : 5123,
            "count" : 1410,
            "type" : "SCALAR"
        }
    ],
    "bufferViews" : [
        {
            "buffer" : 0,
            "byteLength" : 10548,
            "byteOffset" : 0
        },
        {
            "buffer" : 0,
            "byteLength" : 10548,
            "byteOffset" : 10548
        },
        {
            "buffer" : 0,
            "byteLength" : 7032,
            "byteOffset" : 21096
        },
        {
            "buffer" : 0,
            "byteLength" : 2820,
            "byteOffset" : 28128
        }
    ],
    "buffers" : [
        {
            "byteLength" : 30948,
            "uri" : "data:application/octet-stream;base64,"
        }
    ]
}
