{
    "asset" : {
        "generator" : "Khronos glTF Blender I/O v1.4.40",
        "version" : "2.0"
    },
    "scene" : 0,
    "scenes" : [
        {
            "name" : "Scene",
            "nodes" : [
                0
            ]
        }
    ],
    "nodes" : [
        {
            "mesh" : 0,
            "name" : "Second Room-col"
        }
    ],
    "meshes" : [
        {
            "name" : "Cube.005",
            "primitives" : [
                {
                    "attributes" : {
                        "POSITION" : 0,
                        "NORMAL" : 1,
                        "TEXCOORD_0" : 2
                    },
                    "indices" : 3
                }
            ]
        }
    ],
    "accessors" : [
        {
            "bufferView" : 0,
            "componentType" : 5126,
            "count" : 940,
            "max" : [
                17.747526168823242,
                11.780945777893066,
                26.462711334228516
            ],
            "min" : [
                -17.747526168823242,
                -2.735544204711914,
                -17.85455894470215
            ],
            "type" : "VEC3"
        },
        {
            "bufferView" : 1,
            "componentType" : 5126,
            "count" : 940,
            "type" : "VEC3"
        },
        {
            "bufferView" : 2,
            "componentType" : 5126,
            "count" : 940,
            "type" : "VEC2"
        },
        {
            "bufferView" : 3,
            "componentType" : 5123,
            "count" : 1410,
            "type" : "SCALAR"
        }
    ],
    "bufferViews" : [
        {
            "buffer" : 0,
            "byteLength" : 11280,
            "byteOffset" : 0
        },
        {
            "buffer" : 0,
            "byteLength" : 11280,
            "byteOffset" : 11280
        },
        {
            "buffer" : 0,
            "byteLength" : 7520,
            "byteOffset" : 22560
        },
        {
            "buffer" : 0,
            "byteLength" : 2820,
            "byteOffset" : 30080
        }
    ],
    "buffers" : [
        {
            "byteLength" : 32900,
            "uri" : "data:application/octet-stream;base64,"
        }
    ]
}
